<svg xmlns="http://www.w3.org/2000/svg" style="display: none;"><symbol id="instagram-logo" viewBox="0 0 169.063 169.063"><title>instagram-logo</title><path d="M122.406,0H46.654C20.929,0,0,20.93,0,46.655v75.752c0,25.726,20.929,46.655,46.654,46.655h75.752 c25.727,0,46.656-20.93,46.656-46.655V46.655C169.063,20.93,148.133,0,122.406,0z M154.063,122.407 c0,17.455-14.201,31.655-31.656,31.655H46.654C29.2,154.063,15,139.862,15,122.407V46.655C15,29.201,29.2,15,46.654,15h75.752 c17.455,0,31.656,14.201,31.656,31.655V122.407z"/><path d="M84.531,40.97c-24.021,0-43.563,19.542-43.563,43.563c0,24.02,19.542,43.561,43.563,43.561s43.563-19.541,43.563-43.561 C128.094,60.512,108.552,40.97,84.531,40.97z M84.531,113.093c-15.749,0-28.563-12.812-28.563-28.561 c0-15.75,12.813-28.563,28.563-28.563s28.563,12.813,28.563,28.563C113.094,100.281,100.28,113.093,84.531,113.093z"/><path d="M129.921,28.251c-2.89,0-5.729,1.17-7.77,3.22c-2.051,2.04-3.23,4.88-3.23,7.78c0,2.891,1.18,5.73,3.23,7.78 c2.04,2.04,4.88,3.22,7.77,3.22c2.9,0,5.73-1.18,7.78-3.22c2.05-2.05,3.22-4.89,3.22-7.78c0-2.9-1.17-5.74-3.22-7.78 C135.661,29.421,132.821,28.251,129.921,28.251z"/></symbol><symbol id="youtube-play-button" viewBox="0 0 90 90"><title>youtube-play-button</title><path id="YouTube__x28_alt_x29_" d="M90,26.958C90,19.525,83.979,13.5,76.55,13.5h-63.1C6.021,13.5,0,19.525,0,26.958v36.084 C0,70.475,6.021,76.5,13.45,76.5h63.1C83.979,76.5,90,70.475,90,63.042V26.958z M36,60.225V26.33l25.702,16.947L36,60.225z"/></symbol><symbol id="facebook-logo" viewBox="0 0 90 90"><title>facebook-logo</title><path id="Facebook__x28_alt_x29_" d="M90,15.001C90,7.119,82.884,0,75,0H15C7.116,0,0,7.119,0,15.001v59.998 C0,82.881,7.116,90,15.001,90H45V56H34V41h11v-5.844C45,25.077,52.568,16,61.875,16H74v15H61.875C60.548,31,59,32.611,59,35.024V41 h15v15H59v34h16c7.884,0,15-7.119,15-15.001V15.001z"/></symbol></svg>